<svg xmlns="http://www.w3.org/2000/svg" width="48" height="48" viewBox="0 0 48 48">
    <path fill="#00B286" fill-rule="nonzero" d="M12 0h24c6.602 0 12 5.398 12 12v24c0 6.602-5.398 12-12 12H12C5.398 48 0 42.602 0 36V12C0 5.398 5.398 0 12 0zm6.157 31.566c-.916-.867-1.639-1.831-2.169-2.94l21.253-6.41c.482-.144.82-.433 1.108-.867.29-.482.29-1.012.049-1.59a13.134 13.134 0 0 0-2.7-4.723 14.827 14.827 0 0 0-4.144-3.229c-1.59-.819-3.229-1.301-5.012-1.542a13.252 13.252 0 0 0-5.301.482c-1.88.675-3.566 1.59-4.964 2.795a13.749 13.749 0 0 0-3.373 4.145 13.815 13.815 0 0 0-1.543 5.012 13.224 13.224 0 0 0 .53 5.446c.579 1.927 1.446 3.566 2.651 4.963a14.335 14.335 0 0 0 4.145 3.326c1.59.819 3.277 1.3 5.06 1.494 1.783.144 3.614 0 5.446-.579 1.976-.626 3.662-1.445 5.012-2.457 1.35-1.06 2.41-2.41 3.229-4.145.24-.434.289-.868.144-1.35-.144-.481-.433-.819-.867-1.06a1.653 1.653 0 0 0-1.35-.144c-.481.144-.819.433-1.06.867-.626 1.157-1.494 2.12-2.506 2.988-1.012.82-2.217 1.446-3.566 1.88a9.563 9.563 0 0 1-3.663.433 9.17 9.17 0 0 1-3.47-.819c-1.06-.482-2.024-1.156-2.94-1.976zm.867-15.71c.916-.772 2.024-1.302 3.23-1.687 1.204-.386 2.409-.482 3.71-.338 1.205.097 2.361.386 3.422.82a9.546 9.546 0 0 1 2.94 1.88c.867.818 1.59 1.782 2.168 2.842l-19.422 5.88c-.144-1.205-.096-2.41.193-3.566.241-1.205.723-2.265 1.35-3.23.674-1.011 1.445-1.83 2.41-2.602z"/>
</svg>
