<svg xmlns="http://www.w3.org/2000/svg" width="48" height="48" viewBox="0 0 48 48">
    <path fill="#416EB3" fill-rule="nonzero" d="M36.01 0H11.99C5.38 0 0 5.423 0 11.99v24.02C0 42.62 5.423 48 11.99 48h24.02C42.62 48 48 42.577 48 36.01V11.99C48.042 5.38 42.62 0 36.01 0zM24.318 3.813a5.343 5.343 0 0 1 5.338 5.338c0 2.923-2.373 5.338-5.338 5.338a5.343 5.343 0 0 1-5.338-5.338 5.316 5.316 0 0 1 5.338-5.338zm17.75 24.402a4.346 4.346 0 0 1-2.33 2.415V31.308c-.593 3.39-2.584 6.44-5.422 8.43v3.94a.49.49 0 0 1-.509.51h-5.21a.49.49 0 0 1-.509-.51v-1.651c-.424.042-.847.084-1.27.084h-5.381c-.424 0-.847 0-1.271-.042v1.652a.49.49 0 0 1-.509.508h-5.21a.49.49 0 0 1-.509-.508v-3.94c-2.415-1.694-4.194-4.11-5.041-6.863H6.143a.49.49 0 0 1-.508-.508V25.63a.49.49 0 0 1 .508-.508h2.754c.508-1.61 1.355-3.135 2.414-4.449v-4.533c0-.212.128-.381.297-.466.085-.042.127-.042.212-.042.127 0 .254.042.339.127l2.372 2.118a12.846 12.846 0 0 1 6.906-1.991h5.38c6.779 0 11.905 6.058 12.922 11.862V27.961c.127-.17.211-.339.296-.508a2.57 2.57 0 0 0 0-1.78c-.127-.254 0-.55.254-.677l1.06-.466c.084-.043.126-.043.211-.043.085 0 .127 0 .17.043.096.032.168.112.234.186l.003.004.06.064c.508 1.059.508 2.287.042 3.431zm-15.25-10.294h-5.381c-2.288 0-4.533.72-6.397 2.075l-.34.255c-.084.084-.211.084-.296.084a.481.481 0 0 1-.339-.127l-.678-.593v1.61a.481.481 0 0 1-.127.339l-.127.17a11.267 11.267 0 0 0-2.457 4.66l-.085.423c-.042.212-.254.382-.508.382H7.71v3.6h2.373c.254 0 .424.17.508.382l.085.424c.678 2.796 2.415 5.168 4.83 6.736l.254.17c.127.084.254.253.254.423v3.22h2.076v-1.907c0-.17.085-.296.17-.381a.481.481 0 0 1 .338-.127h.085l.635.127c.72.127 1.399.212 2.119.212h5.38c.72 0 1.398-.085 2.118-.212l.636-.127h.085c.127 0 .211.042.339.127.127.085.169.254.169.381v1.907h2.076v-3.22c0-.17.085-.34.254-.424l.254-.17c2.585-1.652 4.406-4.32 4.957-7.286V27.96c-.932-4.957-5.253-10.04-10.888-10.04zm-11.143 9.828a1.41 1.41 0 0 1-1.398-1.398 1.41 1.41 0 0 1 1.398-1.398 1.41 1.41 0 0 1 1.398 1.398 1.41 1.41 0 0 1-1.398 1.398zm11.862-5.93h-6.524a.76.76 0 0 1-.762-.763.76.76 0 0 1 .762-.763h6.524a.76.76 0 0 1 .763.763.76.76 0 0 1-.763.762zm0-12.668c0 1.78-1.44 3.22-3.22 3.22-1.821 0-3.262-1.44-3.22-3.22 0-1.78 1.441-3.22 3.22-3.22 1.78 0 3.22 1.44 3.22 3.22z"/>
</svg>
