<svg xmlns="http://www.w3.org/2000/svg" width="48" height="48" viewBox="0 0 48 48">
    <path fill="#BEC923" fill-rule="nonzero" d="M11.99 0h24.02C42.62 0 48.042 5.423 48 11.99v24.02C48 42.578 42.62 48 36.01 48H11.99C5.422 48 0 42.62 0 36.01V11.99C0 5.422 5.38 0 11.99 0zm23.343 25.8l7.498-1.355c-.847-4.28-3.05-8.05-6.143-10.803l-4.914 5.93c1.78 1.61 3.05 3.771 3.559 6.229zm.72-12.71c-3.22-2.583-7.245-4.193-11.608-4.278v7.753a11.25 11.25 0 0 1 6.693 2.457l4.915-5.931zM4.787 28.259c0 3.347.848 6.566 2.373 9.32l6.566-3.855a11.727 11.727 0 0 1-1.355-5.465c0-.551.042-1.06.127-1.61l-7.499-1.356a22.723 22.723 0 0 0-.212 2.966zm7.88-2.457c.466-2.204 1.525-4.237 3.135-5.847.127-.127.297-.296.466-.424l-4.914-5.888c-3.135 2.753-5.338 6.524-6.185 10.803l7.498 1.356zm10.93-16.989c-4.406.127-8.43 1.695-11.608 4.279l4.915 5.889a11.28 11.28 0 0 1 6.693-2.458v-7.71zm8.59 16.362c.17-.25.315-.468.434-.644.212-.34.17-.382-.17-.17-.277.193-.656.455-1.104.764-2.695 1.86-7.907 5.457-8.851 6.438a2.148 2.148 0 0 0 0 3.05c.805.848 2.16.848 3.008 0 1.04-1.04 4.99-6.917 6.684-9.438zm2.044 8.549l6.609 3.855a18.79 18.79 0 0 0 2.33-9.32c0-1.017-.085-1.991-.212-2.966l-7.498 1.356a9.91 9.91 0 0 1 .127 1.61c0 1.906-.466 3.813-1.356 5.465zm-10.803-.043a.87.87 0 0 1 0-1.228c.296-.34.847-.34 1.228 0a.87.87 0 0 1-1.228 1.228z"/>
</svg>
